<?xml version="1.0" encoding="UTF-8"?>
<svg id="Layer_2" data-name="Layer 2" xmlns="http://www.w3.org/2000/svg" width="597.93" height="164.33" viewBox="0 0 597.93 164.33">
  <g id="Layer_1-2" data-name="Layer 1">
    <g>
      <g>
        <polygon points="30.63 148.22 30.63 96.51 4.5 96.51 4.5 16.12 181.12 16.12 181.12 96.51 154.99 96.51 154.99 148.22 30.63 148.22" style="fill: #fff;"/>
        <path d="M176.62,20.62v71.4h-26.13v51.7H35.13v-51.7H9V20.62h167.62M185.62,11.62H0v89.4h26.13v51.7h133.36v-51.7h26.13V11.62h0Z" style="fill: #231f20;"/>
      </g>
      <g>
        <polygon points="438.1 148.22 438.1 16.12 562.46 16.12 562.46 86.67 593.43 86.67 593.43 148.22 438.1 148.22" style="fill: #fff;"/>
        <path d="M557.96,20.62v70.55h30.97v52.55h-146.33V20.62h115.36M566.96,11.62h-133.36v141.1h164.33v-70.55h-30.97V11.62h0Z" style="fill: #231f20;"/>
      </g>
      <circle cx="370.03" cy="82.17" r="77.67" style="fill: #fff; stroke: #231f20; stroke-miterlimit: 10; stroke-width: 9px;"/>
      <circle cx="249.17" cy="82.17" r="77.67" style="fill: #fff; stroke: #231f20; stroke-miterlimit: 10; stroke-width: 9px;"/>
    </g>
  </g>
</svg>